%TF.GenerationSoftware,KiCad,Pcbnew,7.0.5-7.0.5~ubuntu22.04.1*%
%TF.CreationDate,2023-07-14T20:09:26+02:00*%
%TF.ProjectId,pico_breakout,7069636f-5f62-4726-9561-6b6f75742e6b,rev?*%
%TF.SameCoordinates,Original*%
%TF.FileFunction,OtherDrawing,Comment*%
%FSLAX46Y46*%
G04 Gerber Fmt 4.6, Leading zero omitted, Abs format (unit mm)*
G04 Created by KiCad (PCBNEW 7.0.5-7.0.5~ubuntu22.04.1) date 2023-07-14 20:09:26*
%MOMM*%
%LPD*%
G01*
G04 APERTURE LIST*
%ADD10C,0.100000*%
G04 APERTURE END LIST*
%TO.C,U1*%
D10*
X125500000Y-43190000D02*
X123500000Y-43190000D01*
X123500000Y-41190000D01*
X125500000Y-41190000D01*
X125500000Y-43190000D01*
G36*
X125500000Y-43190000D02*
G01*
X123500000Y-43190000D01*
X123500000Y-41190000D01*
X125500000Y-41190000D01*
X125500000Y-43190000D01*
G37*
X125500000Y-45690000D02*
X123500000Y-45690000D01*
X123500000Y-43690000D01*
X125500000Y-43690000D01*
X125500000Y-45690000D01*
G36*
X125500000Y-45690000D02*
G01*
X123500000Y-45690000D01*
X123500000Y-43690000D01*
X125500000Y-43690000D01*
X125500000Y-45690000D01*
G37*
X125500000Y-48190000D02*
X123500000Y-48190000D01*
X123500000Y-46190000D01*
X125500000Y-46190000D01*
X125500000Y-48190000D01*
G36*
X125500000Y-48190000D02*
G01*
X123500000Y-48190000D01*
X123500000Y-46190000D01*
X125500000Y-46190000D01*
X125500000Y-48190000D01*
G37*
X130700000Y-39490000D02*
X123300000Y-39490000D01*
X123300000Y-34790000D01*
X130700000Y-34790000D01*
X130700000Y-39490000D01*
G36*
X130700000Y-39490000D02*
G01*
X123300000Y-39490000D01*
X123300000Y-34790000D01*
X130700000Y-34790000D01*
X130700000Y-39490000D01*
G37*
%TD*%
M02*
