%TF.GenerationSoftware,KiCad,Pcbnew,7.0.5-7.0.5~ubuntu22.04.1*%
%TF.CreationDate,2023-07-14T20:09:26+02:00*%
%TF.ProjectId,pico_breakout,7069636f-5f62-4726-9561-6b6f75742e6b,rev?*%
%TF.SameCoordinates,Original*%
%TF.FileFunction,Copper,L1,Top*%
%TF.FilePolarity,Positive*%
%FSLAX46Y46*%
G04 Gerber Fmt 4.6, Leading zero omitted, Abs format (unit mm)*
G04 Created by KiCad (PCBNEW 7.0.5-7.0.5~ubuntu22.04.1) date 2023-07-14 20:09:26*
%MOMM*%
%LPD*%
G01*
G04 APERTURE LIST*
G04 Aperture macros list*
%AMRoundRect*
0 Rectangle with rounded corners*
0 $1 Rounding radius*
0 $2 $3 $4 $5 $6 $7 $8 $9 X,Y pos of 4 corners*
0 Add a 4 corners polygon primitive as box body*
4,1,4,$2,$3,$4,$5,$6,$7,$8,$9,$2,$3,0*
0 Add four circle primitives for the rounded corners*
1,1,$1+$1,$2,$3*
1,1,$1+$1,$4,$5*
1,1,$1+$1,$6,$7*
1,1,$1+$1,$8,$9*
0 Add four rect primitives between the rounded corners*
20,1,$1+$1,$2,$3,$4,$5,0*
20,1,$1+$1,$4,$5,$6,$7,0*
20,1,$1+$1,$6,$7,$8,$9,0*
20,1,$1+$1,$8,$9,$2,$3,0*%
G04 Aperture macros list end*
%TA.AperFunction,ComponentPad*%
%ADD10R,1.700000X1.700000*%
%TD*%
%TA.AperFunction,SMDPad,CuDef*%
%ADD11R,1.780000X0.720000*%
%TD*%
%TA.AperFunction,ComponentPad*%
%ADD12O,1.700000X1.700000*%
%TD*%
%TA.AperFunction,SMDPad,CuDef*%
%ADD13R,3.500000X1.700000*%
%TD*%
%TA.AperFunction,SMDPad,CuDef*%
%ADD14R,1.700000X3.500000*%
%TD*%
%TA.AperFunction,SMDPad,CuDef*%
%ADD15RoundRect,0.237500X0.287500X0.237500X-0.287500X0.237500X-0.287500X-0.237500X0.287500X-0.237500X0*%
%TD*%
%TA.AperFunction,SMDPad,CuDef*%
%ADD16RoundRect,0.237500X-0.250000X-0.237500X0.250000X-0.237500X0.250000X0.237500X-0.250000X0.237500X0*%
%TD*%
%TA.AperFunction,ComponentPad*%
%ADD17C,1.700000*%
%TD*%
%TA.AperFunction,ComponentPad*%
%ADD18C,2.000000*%
%TD*%
%TA.AperFunction,SMDPad,CuDef*%
%ADD19R,1.560000X0.400000*%
%TD*%
%TA.AperFunction,ViaPad*%
%ADD20C,0.800000*%
%TD*%
%TA.AperFunction,Conductor*%
%ADD21C,0.250000*%
%TD*%
G04 APERTURE END LIST*
D10*
%TO.P,SO-8,1*%
%TO.N,SO-8-2-1*%
X84582000Y-93980000D03*
D11*
X89422534Y-95509929D03*
D12*
%TO.P,SO-8,2*%
%TO.N,SO-8-2-2*%
X84582000Y-96520000D03*
D11*
X89422534Y-96779929D03*
D12*
%TO.P,SO-8,3*%
%TO.N,SO-8-2-3*%
X84582000Y-99060000D03*
D11*
X89422534Y-98049929D03*
D12*
%TO.P,SO-8,4*%
%TO.N,SO-8-2-4*%
X84582000Y-101600000D03*
D11*
X89422534Y-99319929D03*
%TO.P,SO-8,5*%
%TO.N,SO-8-2-5*%
X94102534Y-99319929D03*
D12*
X99060000Y-101600000D03*
D11*
%TO.P,SO-8,6*%
%TO.N,SO-8-2-6*%
X94102534Y-98049929D03*
D12*
X99060000Y-99060000D03*
D11*
%TO.P,SO-8,7*%
%TO.N,SO-8-2-7*%
X94102534Y-96779929D03*
D12*
X99060000Y-96520000D03*
D11*
%TO.P,SO-8,8*%
%TO.N,SO-8-2-8*%
X94102534Y-95509929D03*
D12*
X99060000Y-93980000D03*
%TD*%
%TO.P,U1,1,GPIO0*%
%TO.N,/GPIO0*%
X118110000Y-35560000D03*
D13*
X117210000Y-35560000D03*
D12*
%TO.P,U1,2,GPIO1*%
%TO.N,/GPIO1*%
X118110000Y-38100000D03*
D13*
X117210000Y-38100000D03*
D10*
%TO.P,U1,3,GND*%
%TO.N,GND*%
X118110000Y-40640000D03*
D13*
X117210000Y-40640000D03*
D12*
%TO.P,U1,4,GPIO2*%
%TO.N,/GPIO2*%
X118110000Y-43180000D03*
D13*
X117210000Y-43180000D03*
D12*
%TO.P,U1,5,GPIO3*%
%TO.N,/GPIO3*%
X118110000Y-45720000D03*
D13*
X117210000Y-45720000D03*
D12*
%TO.P,U1,6,GPIO4*%
%TO.N,/GPIO4*%
X118110000Y-48260000D03*
D13*
X117210000Y-48260000D03*
D12*
%TO.P,U1,7,GPIO5*%
%TO.N,/GPIO5*%
X118110000Y-50800000D03*
D13*
X117210000Y-50800000D03*
D10*
%TO.P,U1,8,GND*%
%TO.N,GND*%
X118110000Y-53340000D03*
D13*
X117210000Y-53340000D03*
D12*
%TO.P,U1,9,GPIO6*%
%TO.N,/GPIO6*%
X118110000Y-55880000D03*
D13*
X117210000Y-55880000D03*
D12*
%TO.P,U1,10,GPIO7*%
%TO.N,/GPIO7*%
X118110000Y-58420000D03*
D13*
X117210000Y-58420000D03*
D12*
%TO.P,U1,11,GPIO8*%
%TO.N,/GPIO8*%
X118110000Y-60960000D03*
D13*
X117210000Y-60960000D03*
D12*
%TO.P,U1,12,GPIO9*%
%TO.N,/GPIO9*%
X118110000Y-63500000D03*
D13*
X117210000Y-63500000D03*
D10*
%TO.P,U1,13,GND*%
%TO.N,GND*%
X118110000Y-66040000D03*
D13*
X117210000Y-66040000D03*
D12*
%TO.P,U1,14,GPIO10*%
%TO.N,/GPIO10*%
X118110000Y-68580000D03*
D13*
X117210000Y-68580000D03*
D12*
%TO.P,U1,15,GPIO11*%
%TO.N,/GPIO11*%
X118110000Y-71120000D03*
D13*
X117210000Y-71120000D03*
D12*
%TO.P,U1,16,GPIO12*%
%TO.N,/GPIO12*%
X118110000Y-73660000D03*
D13*
X117210000Y-73660000D03*
D12*
%TO.P,U1,17,GPIO13*%
%TO.N,/GPIO13*%
X118110000Y-76200000D03*
D13*
X117210000Y-76200000D03*
D10*
%TO.P,U1,18,GND*%
%TO.N,GND*%
X118110000Y-78740000D03*
D13*
X117210000Y-78740000D03*
D12*
%TO.P,U1,19,GPIO14*%
%TO.N,/GPIO14*%
X118110000Y-81280000D03*
D13*
X117210000Y-81280000D03*
D12*
%TO.P,U1,20,GPIO15*%
%TO.N,/GPIO15*%
X118110000Y-83820000D03*
D13*
X117210000Y-83820000D03*
D12*
%TO.P,U1,21,GPIO16*%
%TO.N,/GPIO16*%
X135890000Y-83820000D03*
D13*
X136790000Y-83820000D03*
D12*
%TO.P,U1,22,GPIO17*%
%TO.N,/GPIO17*%
X135890000Y-81280000D03*
D13*
X136790000Y-81280000D03*
D10*
%TO.P,U1,23,GND*%
%TO.N,GND*%
X135890000Y-78740000D03*
D13*
X136790000Y-78740000D03*
D12*
%TO.P,U1,24,GPIO18*%
%TO.N,/GPIO18*%
X135890000Y-76200000D03*
D13*
X136790000Y-76200000D03*
D12*
%TO.P,U1,25,GPIO19*%
%TO.N,/GPIO19*%
X135890000Y-73660000D03*
D13*
X136790000Y-73660000D03*
D12*
%TO.P,U1,26,GPIO20*%
%TO.N,/GPIO20*%
X135890000Y-71120000D03*
D13*
X136790000Y-71120000D03*
D12*
%TO.P,U1,27,GPIO21*%
%TO.N,/GPIO21*%
X135890000Y-68580000D03*
D13*
X136790000Y-68580000D03*
D10*
%TO.P,U1,28,GND*%
%TO.N,GND*%
X135890000Y-66040000D03*
D13*
X136790000Y-66040000D03*
D12*
%TO.P,U1,29,GPIO22*%
%TO.N,/GPIO22*%
X135890000Y-63500000D03*
D13*
X136790000Y-63500000D03*
D12*
%TO.P,U1,30,RUN*%
%TO.N,/RUN*%
X135890000Y-60960000D03*
D13*
X136790000Y-60960000D03*
D12*
%TO.P,U1,31,GPIO26_ADC0*%
%TO.N,/GPIO26*%
X135890000Y-58420000D03*
D13*
X136790000Y-58420000D03*
D12*
%TO.P,U1,32,GPIO27_ADC1*%
%TO.N,/GPIO27*%
X135890000Y-55880000D03*
D13*
X136790000Y-55880000D03*
D10*
%TO.P,U1,33,AGND*%
%TO.N,Net-(J2-Pin_8)*%
X135890000Y-53340000D03*
D13*
X136790000Y-53340000D03*
D12*
%TO.P,U1,34,GPIO28_ADC2*%
%TO.N,/GPIO28*%
X135890000Y-50800000D03*
D13*
X136790000Y-50800000D03*
D12*
%TO.P,U1,35,ADC_VREF*%
%TO.N,/ADC_VREF*%
X135890000Y-48260000D03*
D13*
X136790000Y-48260000D03*
D12*
%TO.P,U1,36,3V3*%
%TO.N,/3V3*%
X135890000Y-45720000D03*
D13*
X136790000Y-45720000D03*
D12*
%TO.P,U1,37,3V3_EN*%
%TO.N,/3V3_EN*%
X135890000Y-43180000D03*
D13*
X136790000Y-43180000D03*
D10*
%TO.P,U1,38,GND*%
%TO.N,GND*%
X135890000Y-40640000D03*
D13*
X136790000Y-40640000D03*
D12*
%TO.P,U1,39,VSYS*%
%TO.N,/VSYS*%
X135890000Y-38100000D03*
D13*
X136790000Y-38100000D03*
D12*
%TO.P,U1,40,VBUS*%
%TO.N,/VBUS*%
X135890000Y-35560000D03*
D13*
X136790000Y-35560000D03*
D12*
%TO.P,U1,41,SWCLK*%
%TO.N,unconnected-(U1-SWCLK-Pad41)*%
X124460000Y-83590000D03*
D14*
X124460000Y-84490000D03*
D10*
%TO.P,U1,42,GND*%
%TO.N,GND*%
X127000000Y-83590000D03*
D14*
X127000000Y-84490000D03*
D12*
%TO.P,U1,43,SWDIO*%
%TO.N,unconnected-(U1-SWDIO-Pad43)*%
X129540000Y-83590000D03*
D14*
X129540000Y-84490000D03*
%TD*%
D10*
%TO.P,SO-8,1*%
%TO.N,SO-8-1-1*%
X58801000Y-93980000D03*
D11*
X63641534Y-95509929D03*
D12*
%TO.P,SO-8,2*%
%TO.N,SO-8-1-2*%
X58801000Y-96520000D03*
D11*
X63641534Y-96779929D03*
D12*
%TO.P,SO-8,3*%
%TO.N,SO-8-1-3*%
X58801000Y-99060000D03*
D11*
X63641534Y-98049929D03*
D12*
%TO.P,SO-8,4*%
%TO.N,SO-8-1-4*%
X58801000Y-101600000D03*
D11*
X63641534Y-99319929D03*
%TO.P,SO-8,5*%
%TO.N,SO-8-1-5*%
X68321534Y-99319929D03*
D12*
X73279000Y-101600000D03*
D11*
%TO.P,SO-8,6*%
%TO.N,SO-8-1-6*%
X68321534Y-98049929D03*
D12*
X73279000Y-99060000D03*
D11*
%TO.P,SO-8,7*%
%TO.N,SO-8-1-7*%
X68321534Y-96779929D03*
D12*
X73279000Y-96520000D03*
D11*
%TO.P,SO-8,8*%
%TO.N,SO-8-1-8*%
X68321534Y-95509929D03*
D12*
X73279000Y-93980000D03*
%TD*%
D15*
%TO.P,D2,1,K*%
%TO.N,GND*%
X193520000Y-55880000D03*
%TO.P,D2,2,A*%
%TO.N,Net-(D2-A)*%
X191770000Y-55880000D03*
%TD*%
D16*
%TO.P,R1,1*%
%TO.N,/GPIO26*%
X186652500Y-58420000D03*
%TO.P,R1,2*%
%TO.N,Net-(D1-A)*%
X188477500Y-58420000D03*
%TD*%
D17*
%TO.P,J4,1,Pin_1*%
%TO.N,unconnected-(J4-Pin_1-Pad1)*%
X157480000Y-35560000D03*
X160020000Y-35560000D03*
X162560000Y-35560000D03*
X165100000Y-35560000D03*
X167640000Y-35560000D03*
D12*
%TO.P,J4,2,Pin_2*%
%TO.N,unconnected-(J4-Pin_2-Pad2)*%
X157480000Y-38100000D03*
X160020000Y-38100000D03*
X162560000Y-38100000D03*
X165100000Y-38100000D03*
X167640000Y-38100000D03*
D10*
%TO.P,J4,3,Pin_3*%
%TO.N,GND*%
X157480000Y-40640000D03*
X160020000Y-40640000D03*
X162560000Y-40640000D03*
X165100000Y-40640000D03*
X167640000Y-40640000D03*
D12*
%TO.P,J4,4,Pin_4*%
%TO.N,unconnected-(J4-Pin_4-Pad4)*%
X157480000Y-43180000D03*
X160020000Y-43180000D03*
X162560000Y-43180000D03*
X165100000Y-43180000D03*
X167640000Y-43180000D03*
%TO.P,J4,5,Pin_5*%
%TO.N,unconnected-(J4-Pin_5-Pad5)*%
X157480000Y-45720000D03*
X160020000Y-45720000D03*
X162560000Y-45720000D03*
X165100000Y-45720000D03*
X167640000Y-45720000D03*
%TO.P,J4,6,Pin_6*%
%TO.N,unconnected-(J4-Pin_6-Pad6)*%
X157480000Y-48260000D03*
X160020000Y-48260000D03*
X162560000Y-48260000D03*
X165100000Y-48260000D03*
X167640000Y-48260000D03*
%TO.P,J4,7,Pin_7*%
%TO.N,unconnected-(J4-Pin_7-Pad7)*%
X157480000Y-50800000D03*
X160020000Y-50800000D03*
X162560000Y-50800000D03*
X165100000Y-50800000D03*
X167640000Y-50800000D03*
D17*
%TO.P,J4,8,Pin_8*%
%TO.N,unconnected-(J4-Pin_8-Pad8)*%
X157480000Y-53340000D03*
X160020000Y-53340000D03*
X162560000Y-53340000D03*
X165100000Y-53340000D03*
X167640000Y-53340000D03*
D12*
%TO.P,J4,9,Pin_9*%
%TO.N,unconnected-(J4-Pin_9-Pad9)*%
X157480000Y-55880000D03*
X160020000Y-55880000D03*
X162560000Y-55880000D03*
X165100000Y-55880000D03*
X167640000Y-55880000D03*
%TO.P,J4,10,Pin_10*%
%TO.N,unconnected-(J4-Pin_10-Pad10)*%
X157480000Y-58420000D03*
X160020000Y-58420000D03*
X162560000Y-58420000D03*
X165100000Y-58420000D03*
X167640000Y-58420000D03*
%TO.P,J4,11,Pin_11*%
%TO.N,unconnected-(J4-Pin_11-Pad11)*%
X157480000Y-60960000D03*
X160020000Y-60960000D03*
X162560000Y-60960000D03*
X165100000Y-60960000D03*
X167640000Y-60960000D03*
%TO.P,J4,12,Pin_12*%
%TO.N,unconnected-(J4-Pin_12-Pad12)*%
X157480000Y-63500000D03*
X160020000Y-63500000D03*
X162560000Y-63500000D03*
X165100000Y-63500000D03*
X167640000Y-63500000D03*
D10*
%TO.P,J4,13,Pin_13*%
%TO.N,GND*%
X157480000Y-66040000D03*
X160020000Y-66040000D03*
X162560000Y-66040000D03*
X165100000Y-66040000D03*
X167640000Y-66040000D03*
D12*
%TO.P,J4,14,Pin_14*%
%TO.N,unconnected-(J4-Pin_14-Pad14)*%
X157480000Y-68580000D03*
X160020000Y-68580000D03*
X162560000Y-68580000D03*
X165100000Y-68580000D03*
X167640000Y-68580000D03*
%TO.P,J4,15,Pin_15*%
%TO.N,unconnected-(J4-Pin_15-Pad15)*%
X157480000Y-71120000D03*
X160020000Y-71120000D03*
X162560000Y-71120000D03*
X165100000Y-71120000D03*
X167640000Y-71120000D03*
%TO.P,J4,16,Pin_16*%
%TO.N,unconnected-(J4-Pin_16-Pad16)*%
X157480000Y-73660000D03*
X160020000Y-73660000D03*
X162560000Y-73660000D03*
X165100000Y-73660000D03*
X167640000Y-73660000D03*
%TO.P,J4,17,Pin_17*%
%TO.N,unconnected-(J4-Pin_17-Pad17)*%
X157480000Y-76200000D03*
X160020000Y-76200000D03*
X162560000Y-76200000D03*
X165100000Y-76200000D03*
X167640000Y-76200000D03*
D10*
%TO.P,J4,18,Pin_18*%
%TO.N,GND*%
X157480000Y-78740000D03*
X160020000Y-78740000D03*
X162560000Y-78740000D03*
X165100000Y-78740000D03*
X167640000Y-78740000D03*
D12*
%TO.P,J4,19,Pin_19*%
%TO.N,unconnected-(J4-Pin_19-Pad19)*%
X157480000Y-81280000D03*
X160020000Y-81280000D03*
X162560000Y-81280000D03*
X165100000Y-81280000D03*
X167640000Y-81280000D03*
%TO.P,J4,20,Pin_20*%
%TO.N,unconnected-(J4-Pin_20-Pad20)*%
X157480000Y-83820000D03*
X160020000Y-83820000D03*
X162560000Y-83820000D03*
X165100000Y-83820000D03*
X167640000Y-83820000D03*
%TD*%
D15*
%TO.P,D3,1,K*%
%TO.N,GND*%
X193520000Y-50800000D03*
%TO.P,D3,2,A*%
%TO.N,Net-(D3-A)*%
X191770000Y-50800000D03*
%TD*%
D16*
%TO.P,R3,1*%
%TO.N,/GPIO28*%
X186652500Y-50800000D03*
%TO.P,R3,2*%
%TO.N,Net-(D3-A)*%
X188477500Y-50800000D03*
%TD*%
D17*
%TO.P,J2,1,Pin_1*%
%TO.N,/VBUS*%
X144780000Y-35560000D03*
X147320000Y-35560000D03*
X149860000Y-35560000D03*
X152400000Y-35560000D03*
X154940000Y-35560000D03*
D12*
%TO.P,J2,2,Pin_2*%
%TO.N,/VSYS*%
X144780000Y-38100000D03*
X147320000Y-38100000D03*
X149860000Y-38100000D03*
X152400000Y-38100000D03*
X154940000Y-38100000D03*
D10*
%TO.P,J2,3,Pin_3*%
%TO.N,GND*%
X144780000Y-40640000D03*
X147320000Y-40640000D03*
X149860000Y-40640000D03*
X152400000Y-40640000D03*
X154940000Y-40640000D03*
D12*
%TO.P,J2,4,Pin_4*%
%TO.N,/3V3_EN*%
X144780000Y-43180000D03*
X147320000Y-43180000D03*
X149860000Y-43180000D03*
X152400000Y-43180000D03*
X154940000Y-43180000D03*
%TO.P,J2,5,Pin_5*%
%TO.N,/3V3*%
X144780000Y-45720000D03*
X147320000Y-45720000D03*
X149860000Y-45720000D03*
X152400000Y-45720000D03*
X154940000Y-45720000D03*
%TO.P,J2,6,Pin_6*%
%TO.N,/ADC_VREF*%
X144780000Y-48260000D03*
X147320000Y-48260000D03*
X149860000Y-48260000D03*
X152400000Y-48260000D03*
X154940000Y-48260000D03*
%TO.P,J2,7,Pin_7*%
%TO.N,/GPIO28*%
X144780000Y-50800000D03*
X147320000Y-50800000D03*
X149860000Y-50800000D03*
X152400000Y-50800000D03*
X154940000Y-50800000D03*
D17*
%TO.P,J2,8,Pin_8*%
%TO.N,Net-(J2-Pin_8)*%
X144780000Y-53340000D03*
X147320000Y-53340000D03*
X149860000Y-53340000D03*
X152400000Y-53340000D03*
X154940000Y-53340000D03*
D12*
%TO.P,J2,9,Pin_9*%
%TO.N,/GPIO27*%
X144780000Y-55880000D03*
X147320000Y-55880000D03*
X149860000Y-55880000D03*
X152400000Y-55880000D03*
X154940000Y-55880000D03*
%TO.P,J2,10,Pin_10*%
%TO.N,/GPIO26*%
X144780000Y-58420000D03*
X147320000Y-58420000D03*
X149860000Y-58420000D03*
X152400000Y-58420000D03*
X154940000Y-58420000D03*
%TO.P,J2,11,Pin_11*%
%TO.N,/RUN*%
X144780000Y-60960000D03*
X147320000Y-60960000D03*
X149860000Y-60960000D03*
X152400000Y-60960000D03*
X154940000Y-60960000D03*
%TO.P,J2,12,Pin_12*%
%TO.N,/GPIO22*%
X144780000Y-63500000D03*
X147320000Y-63500000D03*
X149860000Y-63500000D03*
X152400000Y-63500000D03*
X154940000Y-63500000D03*
D10*
%TO.P,J2,13,Pin_13*%
%TO.N,GND*%
X144780000Y-66040000D03*
X147320000Y-66040000D03*
X149860000Y-66040000D03*
X152400000Y-66040000D03*
X154940000Y-66040000D03*
D12*
%TO.P,J2,14,Pin_14*%
%TO.N,/GPIO21*%
X144780000Y-68580000D03*
X147320000Y-68580000D03*
X149860000Y-68580000D03*
X152400000Y-68580000D03*
X154940000Y-68580000D03*
%TO.P,J2,15,Pin_15*%
%TO.N,/GPIO20*%
X144780000Y-71120000D03*
X147320000Y-71120000D03*
X149860000Y-71120000D03*
X152400000Y-71120000D03*
X154940000Y-71120000D03*
%TO.P,J2,16,Pin_16*%
%TO.N,/GPIO19*%
X144780000Y-73660000D03*
X147320000Y-73660000D03*
X149860000Y-73660000D03*
X152400000Y-73660000D03*
X154940000Y-73660000D03*
%TO.P,J2,17,Pin_17*%
%TO.N,/GPIO18*%
X144780000Y-76200000D03*
X147320000Y-76200000D03*
X149860000Y-76200000D03*
X152400000Y-76200000D03*
X154940000Y-76200000D03*
D10*
%TO.P,J2,18,Pin_18*%
%TO.N,GND*%
X144780000Y-78740000D03*
X147320000Y-78740000D03*
X149860000Y-78740000D03*
X152400000Y-78740000D03*
X154940000Y-78740000D03*
D12*
%TO.P,J2,19,Pin_19*%
%TO.N,/GPIO17*%
X144780000Y-81280000D03*
X147320000Y-81280000D03*
X149860000Y-81280000D03*
X152400000Y-81280000D03*
X154940000Y-81280000D03*
%TO.P,J2,20,Pin_20*%
%TO.N,/GPIO16*%
X144780000Y-83820000D03*
X147320000Y-83820000D03*
X149860000Y-83820000D03*
X152400000Y-83820000D03*
X154940000Y-83820000D03*
%TD*%
D17*
%TO.P,J3,1,Pin_1*%
%TO.N,unconnected-(J3-Pin_1-Pad1)*%
X86360000Y-35560000D03*
X88900000Y-35560000D03*
X91440000Y-35560000D03*
X93980000Y-35560000D03*
X96520000Y-35560000D03*
D12*
%TO.P,J3,2,Pin_2*%
%TO.N,unconnected-(J3-Pin_2-Pad2)*%
X86360000Y-38100000D03*
X88900000Y-38100000D03*
X91440000Y-38100000D03*
X93980000Y-38100000D03*
X96520000Y-38100000D03*
D10*
%TO.P,J3,3,Pin_3*%
%TO.N,GND*%
X86360000Y-40640000D03*
X88900000Y-40640000D03*
X91440000Y-40640000D03*
X93980000Y-40640000D03*
X96520000Y-40640000D03*
D12*
%TO.P,J3,4,Pin_4*%
%TO.N,unconnected-(J3-Pin_4-Pad4)*%
X86360000Y-43180000D03*
X88900000Y-43180000D03*
X91440000Y-43180000D03*
X93980000Y-43180000D03*
X96520000Y-43180000D03*
%TO.P,J3,5,Pin_5*%
%TO.N,unconnected-(J3-Pin_5-Pad5)*%
X86360000Y-45720000D03*
X88900000Y-45720000D03*
X91440000Y-45720000D03*
X93980000Y-45720000D03*
X96520000Y-45720000D03*
%TO.P,J3,6,Pin_6*%
%TO.N,unconnected-(J3-Pin_6-Pad6)*%
X86360000Y-48260000D03*
X88900000Y-48260000D03*
X91440000Y-48260000D03*
X93980000Y-48260000D03*
X96520000Y-48260000D03*
%TO.P,J3,7,Pin_7*%
%TO.N,unconnected-(J3-Pin_7-Pad7)*%
X86360000Y-50800000D03*
X88900000Y-50800000D03*
X91440000Y-50800000D03*
X93980000Y-50800000D03*
X96520000Y-50800000D03*
D10*
%TO.P,J3,8,Pin_8*%
%TO.N,GND*%
X86360000Y-53340000D03*
X88900000Y-53340000D03*
X91440000Y-53340000D03*
X93980000Y-53340000D03*
X96520000Y-53340000D03*
D12*
%TO.P,J3,9,Pin_9*%
%TO.N,unconnected-(J3-Pin_9-Pad9)*%
X86360000Y-55880000D03*
X88900000Y-55880000D03*
X91440000Y-55880000D03*
X93980000Y-55880000D03*
X96520000Y-55880000D03*
%TO.P,J3,10,Pin_10*%
%TO.N,unconnected-(J3-Pin_10-Pad10)*%
X86360000Y-58420000D03*
X88900000Y-58420000D03*
X91440000Y-58420000D03*
X93980000Y-58420000D03*
X96520000Y-58420000D03*
%TO.P,J3,11,Pin_11*%
%TO.N,unconnected-(J3-Pin_11-Pad11)*%
X86360000Y-60960000D03*
X88900000Y-60960000D03*
X91440000Y-60960000D03*
X93980000Y-60960000D03*
X96520000Y-60960000D03*
%TO.P,J3,12,Pin_12*%
%TO.N,unconnected-(J3-Pin_12-Pad12)*%
X86360000Y-63500000D03*
X88900000Y-63500000D03*
X91440000Y-63500000D03*
X93980000Y-63500000D03*
X96520000Y-63500000D03*
D10*
%TO.P,J3,13,Pin_13*%
%TO.N,GND*%
X86360000Y-66040000D03*
X88900000Y-66040000D03*
X91440000Y-66040000D03*
X93980000Y-66040000D03*
X96520000Y-66040000D03*
D12*
%TO.P,J3,14,Pin_14*%
%TO.N,unconnected-(J3-Pin_14-Pad14)*%
X86360000Y-68580000D03*
X88900000Y-68580000D03*
X91440000Y-68580000D03*
X93980000Y-68580000D03*
X96520000Y-68580000D03*
%TO.P,J3,15,Pin_15*%
%TO.N,unconnected-(J3-Pin_15-Pad15)*%
X86360000Y-71120000D03*
X88900000Y-71120000D03*
X91440000Y-71120000D03*
X93980000Y-71120000D03*
X96520000Y-71120000D03*
%TO.P,J3,16,Pin_16*%
%TO.N,unconnected-(J3-Pin_16-Pad16)*%
X86360000Y-73660000D03*
X88900000Y-73660000D03*
X91440000Y-73660000D03*
X93980000Y-73660000D03*
X96520000Y-73660000D03*
%TO.P,J3,17,Pin_17*%
%TO.N,unconnected-(J3-Pin_17-Pad17)*%
X86360000Y-76200000D03*
X88900000Y-76200000D03*
X91440000Y-76200000D03*
X93980000Y-76200000D03*
X96520000Y-76200000D03*
D10*
%TO.P,J3,18,Pin_18*%
%TO.N,GND*%
X86360000Y-78740000D03*
X88900000Y-78740000D03*
X91440000Y-78740000D03*
X93980000Y-78740000D03*
X96520000Y-78740000D03*
D12*
%TO.P,J3,19,Pin_19*%
%TO.N,unconnected-(J3-Pin_19-Pad19)*%
X86360000Y-81280000D03*
X88900000Y-81280000D03*
X91440000Y-81280000D03*
X93980000Y-81280000D03*
X96520000Y-81280000D03*
%TO.P,J3,20,Pin_20*%
%TO.N,unconnected-(J3-Pin_20-Pad20)*%
X86360000Y-83820000D03*
X88900000Y-83820000D03*
X91440000Y-83820000D03*
X93980000Y-83820000D03*
X96520000Y-83820000D03*
%TD*%
D18*
%TO.P,SW1,1,1*%
%TO.N,/RUN*%
X106915524Y-91730000D03*
X113415524Y-91730000D03*
%TO.P,SW1,2,2*%
%TO.N,GND*%
X106915524Y-96230000D03*
X113415524Y-96230000D03*
%TD*%
%TO.P,SW2,1,1*%
%TO.N,/GPIO22*%
X118065524Y-91730000D03*
X124565524Y-91730000D03*
%TO.P,SW2,2,2*%
%TO.N,/3V3*%
X118065524Y-96230000D03*
X124565524Y-96230000D03*
%TD*%
%TO.P,SW4,1,1*%
%TO.N,/GPIO20*%
X140315524Y-91730000D03*
X146815524Y-91730000D03*
%TO.P,SW4,2,2*%
%TO.N,/3V3*%
X140315524Y-96230000D03*
X146815524Y-96230000D03*
%TD*%
D10*
%TO.P,SOT-32-10,1*%
%TO.N,SOT-32-1-1*%
X156740000Y-93980000D03*
D19*
X161820000Y-97837452D03*
D12*
%TO.P,SOT-32-10,2*%
%TO.N,SOT-32-1-2*%
X156740000Y-96520000D03*
D19*
X161820000Y-98487452D03*
D12*
%TO.P,SOT-32-10,3*%
%TO.N,SOT-32-1-3*%
X156740000Y-99060000D03*
D19*
X161820000Y-99147452D03*
D12*
%TO.P,SOT-32-10,4*%
%TO.N,SOT-32-1-4*%
X156740000Y-101600000D03*
D19*
X161820000Y-99797452D03*
D12*
%TO.P,SOT-32-10,5*%
%TO.N,SOT-32-1-5*%
X156740000Y-104140000D03*
D19*
X161820000Y-100442452D03*
%TO.P,SOT-32-10,6*%
%TO.N,SOT-32-1-6*%
X164520000Y-100442452D03*
D12*
X170180000Y-104140000D03*
D19*
%TO.P,SOT-32-10,7*%
%TO.N,SOT-32-1-7*%
X164520000Y-99797452D03*
D12*
X170180000Y-101600000D03*
D19*
%TO.P,SOT-32-10,8*%
%TO.N,SOT-32-1-8*%
X164520000Y-99147452D03*
D12*
X170180000Y-99060000D03*
D19*
%TO.P,SOT-32-10,9*%
%TO.N,SOT-32-1-9*%
X164520000Y-98487452D03*
D12*
X170180000Y-96520000D03*
D19*
%TO.P,SOT-32-10,10*%
%TO.N,SOT-32-1-10*%
X164520000Y-97837452D03*
D17*
X170180000Y-93980000D03*
%TD*%
%TO.P,J1,1,Pin_1*%
%TO.N,/GPIO0*%
X99060000Y-35560000D03*
X101600000Y-35560000D03*
X104140000Y-35560000D03*
X106680000Y-35560000D03*
X109220000Y-35560000D03*
D12*
%TO.P,J1,2,Pin_2*%
%TO.N,/GPIO1*%
X99060000Y-38100000D03*
X101600000Y-38100000D03*
X104140000Y-38100000D03*
X106680000Y-38100000D03*
X109220000Y-38100000D03*
D10*
%TO.P,J1,3,Pin_3*%
%TO.N,GND*%
X99060000Y-40640000D03*
X101600000Y-40640000D03*
X104140000Y-40640000D03*
X106680000Y-40640000D03*
X109220000Y-40640000D03*
D12*
%TO.P,J1,4,Pin_4*%
%TO.N,/GPIO2*%
X99060000Y-43180000D03*
X101600000Y-43180000D03*
X104140000Y-43180000D03*
X106680000Y-43180000D03*
X109220000Y-43180000D03*
%TO.P,J1,5,Pin_5*%
%TO.N,/GPIO3*%
X99060000Y-45720000D03*
X101600000Y-45720000D03*
X104140000Y-45720000D03*
X106680000Y-45720000D03*
X109220000Y-45720000D03*
%TO.P,J1,6,Pin_6*%
%TO.N,/GPIO4*%
X99060000Y-48260000D03*
X101600000Y-48260000D03*
X104140000Y-48260000D03*
X106680000Y-48260000D03*
X109220000Y-48260000D03*
%TO.P,J1,7,Pin_7*%
%TO.N,/GPIO5*%
X99060000Y-50800000D03*
X101600000Y-50800000D03*
X104140000Y-50800000D03*
X106680000Y-50800000D03*
X109220000Y-50800000D03*
D10*
%TO.P,J1,8,Pin_8*%
%TO.N,GND*%
X99060000Y-53340000D03*
X101600000Y-53340000D03*
X104140000Y-53340000D03*
X106680000Y-53340000D03*
X109220000Y-53340000D03*
D12*
%TO.P,J1,9,Pin_9*%
%TO.N,/GPIO6*%
X99060000Y-55880000D03*
X101600000Y-55880000D03*
X104140000Y-55880000D03*
X106680000Y-55880000D03*
X109220000Y-55880000D03*
%TO.P,J1,10,Pin_10*%
%TO.N,/GPIO7*%
X99060000Y-58420000D03*
X101600000Y-58420000D03*
X104140000Y-58420000D03*
X106680000Y-58420000D03*
X109220000Y-58420000D03*
%TO.P,J1,11,Pin_11*%
%TO.N,/GPIO8*%
X99060000Y-60960000D03*
X101600000Y-60960000D03*
X104140000Y-60960000D03*
X106680000Y-60960000D03*
X109220000Y-60960000D03*
%TO.P,J1,12,Pin_12*%
%TO.N,/GPIO9*%
X99060000Y-63500000D03*
X101600000Y-63500000D03*
X104140000Y-63500000D03*
X106680000Y-63500000D03*
X109220000Y-63500000D03*
D10*
%TO.P,J1,13,Pin_13*%
%TO.N,GND*%
X99060000Y-66040000D03*
X101600000Y-66040000D03*
X104140000Y-66040000D03*
X106680000Y-66040000D03*
X109220000Y-66040000D03*
D12*
%TO.P,J1,14,Pin_14*%
%TO.N,/GPIO10*%
X99060000Y-68580000D03*
X101600000Y-68580000D03*
X104140000Y-68580000D03*
X106680000Y-68580000D03*
X109220000Y-68580000D03*
%TO.P,J1,15,Pin_15*%
%TO.N,/GPIO11*%
X99060000Y-71120000D03*
X101600000Y-71120000D03*
X104140000Y-71120000D03*
X106680000Y-71120000D03*
X109220000Y-71120000D03*
%TO.P,J1,16,Pin_16*%
%TO.N,/GPIO12*%
X99060000Y-73660000D03*
X101600000Y-73660000D03*
X104140000Y-73660000D03*
X106680000Y-73660000D03*
X109220000Y-73660000D03*
%TO.P,J1,17,Pin_17*%
%TO.N,/GPIO13*%
X99060000Y-76200000D03*
X101600000Y-76200000D03*
X104140000Y-76200000D03*
X106680000Y-76200000D03*
X109220000Y-76200000D03*
D10*
%TO.P,J1,18,Pin_18*%
%TO.N,GND*%
X99060000Y-78740000D03*
X101600000Y-78740000D03*
X104140000Y-78740000D03*
X106680000Y-78740000D03*
X109220000Y-78740000D03*
D12*
%TO.P,J1,19,Pin_19*%
%TO.N,/GPIO14*%
X99060000Y-81280000D03*
X101600000Y-81280000D03*
X104140000Y-81280000D03*
X106680000Y-81280000D03*
X109220000Y-81280000D03*
%TO.P,J1,20,Pin_20*%
%TO.N,/GPIO15*%
X99060000Y-83820000D03*
X101600000Y-83820000D03*
X104140000Y-83820000D03*
X106680000Y-83820000D03*
X109220000Y-83820000D03*
%TD*%
D10*
%TO.P,REF\u002A\u002A,1*%
%TO.N,GND*%
X116840000Y-104140000D03*
%TO.P,REF\u002A\u002A,2*%
X119380000Y-104140000D03*
%TO.P,REF\u002A\u002A,3*%
X121920000Y-104140000D03*
%TO.P,REF\u002A\u002A,4*%
X124460000Y-104140000D03*
%TO.P,REF\u002A\u002A,5*%
X127000000Y-104140000D03*
%TO.P,REF\u002A\u002A,6*%
X129540000Y-104140000D03*
%TO.P,REF\u002A\u002A,7*%
X132080000Y-104140000D03*
%TO.P,REF\u002A\u002A,8*%
X134620000Y-104140000D03*
%TO.P,REF\u002A\u002A,9*%
X137160000Y-104140000D03*
%TO.P,REF\u002A\u002A,10*%
X139700000Y-104140000D03*
%TD*%
D18*
%TO.P,SW3,1,1*%
%TO.N,/GPIO21*%
X129315524Y-91730000D03*
X135815524Y-91730000D03*
%TO.P,SW3,2,2*%
%TO.N,/3V3*%
X129315524Y-96230000D03*
X135815524Y-96230000D03*
%TD*%
D16*
%TO.P,R2,1*%
%TO.N,/GPIO27*%
X186652500Y-55880000D03*
%TO.P,R2,2*%
%TO.N,Net-(D2-A)*%
X188477500Y-55880000D03*
%TD*%
D15*
%TO.P,D1,1,K*%
%TO.N,GND*%
X193520000Y-58420000D03*
%TO.P,D1,2,A*%
%TO.N,Net-(D1-A)*%
X191770000Y-58420000D03*
%TD*%
D10*
%TO.P,SOT-32-10,1*%
%TO.N,SOT-32-2-1*%
X179600000Y-93980000D03*
D19*
X184680000Y-97837452D03*
D12*
%TO.P,SOT-32-10,2*%
%TO.N,SOT-32-2-2*%
X179600000Y-96520000D03*
D19*
X184680000Y-98487452D03*
D12*
%TO.P,SOT-32-10,3*%
%TO.N,SOT-32-2-3*%
X179600000Y-99060000D03*
D19*
X184680000Y-99147452D03*
D12*
%TO.P,SOT-32-10,4*%
%TO.N,SOT-32-2-4*%
X179600000Y-101600000D03*
D19*
X184680000Y-99797452D03*
D12*
%TO.P,SOT-32-10,5*%
%TO.N,SOT-32-2-5*%
X179600000Y-104140000D03*
D19*
X184680000Y-100442452D03*
%TO.P,SOT-32-10,6*%
%TO.N,SOT-32-2-6*%
X187380000Y-100442452D03*
D12*
X193040000Y-104140000D03*
D19*
%TO.P,SOT-32-10,7*%
%TO.N,SOT-32-2-7*%
X187380000Y-99797452D03*
D12*
X193040000Y-101600000D03*
D19*
%TO.P,SOT-32-10,8*%
%TO.N,SOT-32-2-8*%
X187380000Y-99147452D03*
D12*
X193040000Y-99060000D03*
D19*
%TO.P,SOT-32-10,9*%
%TO.N,SOT-32-2-9*%
X187380000Y-98487452D03*
D12*
X193040000Y-96520000D03*
D19*
%TO.P,SOT-32-10,10*%
%TO.N,SOT-32-2-10*%
X187380000Y-97837452D03*
D17*
X193040000Y-93980000D03*
%TD*%
D20*
%TO.N,GND*%
X193500085Y-53215397D03*
%TO.N,/3V3*%
X132080000Y-45720000D03*
X132080000Y-93980000D03*
%TD*%
D21*
%TO.N,GND*%
X193520000Y-50800000D02*
X193520000Y-53195482D01*
X193520000Y-53235312D02*
X193520000Y-55880000D01*
X193520000Y-58420000D02*
X193520000Y-55880000D01*
X193500085Y-53215397D02*
X193520000Y-53235312D01*
X193520000Y-53195482D02*
X193500085Y-53215397D01*
%TO.N,/GPIO0*%
X118110000Y-35560000D02*
X99060000Y-35560000D01*
%TO.N,/GPIO1*%
X99060000Y-38100000D02*
X118110000Y-38100000D01*
%TO.N,/GPIO2*%
X99060000Y-43180000D02*
X118110000Y-43180000D01*
%TO.N,/GPIO3*%
X118110000Y-45720000D02*
X99060000Y-45720000D01*
%TO.N,/GPIO4*%
X99060000Y-48260000D02*
X118110000Y-48260000D01*
%TO.N,/GPIO5*%
X118110000Y-50800000D02*
X99060000Y-50800000D01*
%TO.N,/GPIO6*%
X99060000Y-55880000D02*
X118110000Y-55880000D01*
%TO.N,/GPIO7*%
X118110000Y-58420000D02*
X99060000Y-58420000D01*
%TO.N,/GPIO8*%
X118110000Y-60960000D02*
X99060000Y-60960000D01*
%TO.N,/GPIO9*%
X118110000Y-63500000D02*
X99060000Y-63500000D01*
%TO.N,/GPIO10*%
X99060000Y-68580000D02*
X118110000Y-68580000D01*
%TO.N,/GPIO11*%
X118110000Y-71120000D02*
X99060000Y-71120000D01*
%TO.N,/GPIO12*%
X99060000Y-73660000D02*
X118110000Y-73660000D01*
%TO.N,/GPIO13*%
X118110000Y-76200000D02*
X99060000Y-76200000D01*
%TO.N,/GPIO14*%
X99060000Y-81280000D02*
X118110000Y-81280000D01*
%TO.N,/GPIO15*%
X118110000Y-83820000D02*
X99060000Y-83820000D01*
%TO.N,/VBUS*%
X154940000Y-35560000D02*
X135890000Y-35560000D01*
%TO.N,/VSYS*%
X135890000Y-38100000D02*
X154940000Y-38100000D01*
%TO.N,/3V3_EN*%
X154940000Y-43180000D02*
X135890000Y-43180000D01*
%TO.N,/3V3*%
X118065524Y-96230000D02*
X132087588Y-96230000D01*
X132080000Y-96222412D02*
X132087588Y-96230000D01*
X132087588Y-96230000D02*
X146815524Y-96230000D01*
X132080000Y-93980000D02*
X132080000Y-96222412D01*
X135890000Y-45720000D02*
X132080000Y-45720000D01*
X135890000Y-45720000D02*
X154940000Y-45720000D01*
%TO.N,/ADC_VREF*%
X154940000Y-48260000D02*
X135890000Y-48260000D01*
%TO.N,/GPIO28*%
X135890000Y-50800000D02*
X154940000Y-50800000D01*
X156115000Y-49625000D02*
X154940000Y-50800000D01*
X186690000Y-50800000D02*
X185515000Y-49625000D01*
X185515000Y-49625000D02*
X156115000Y-49625000D01*
%TO.N,Net-(J2-Pin_8)*%
X135890000Y-53340000D02*
X154940000Y-53340000D01*
%TO.N,/GPIO27*%
X186690000Y-55880000D02*
X185515000Y-54705000D01*
X185515000Y-54705000D02*
X156115000Y-54705000D01*
X156115000Y-54705000D02*
X154940000Y-55880000D01*
X135890000Y-55880000D02*
X154940000Y-55880000D01*
%TO.N,/GPIO26*%
X185515000Y-57245000D02*
X156115000Y-57245000D01*
X156115000Y-57245000D02*
X154940000Y-58420000D01*
X186690000Y-58420000D02*
X185515000Y-57245000D01*
X135890000Y-58420000D02*
X154940000Y-58420000D01*
%TO.N,/RUN*%
X113415524Y-91730000D02*
X116911077Y-88234447D01*
X133365000Y-85917545D02*
X133365000Y-63485000D01*
X133365000Y-63485000D02*
X135890000Y-60960000D01*
X131048098Y-88234447D02*
X133365000Y-85917545D01*
X113415524Y-91730000D02*
X106915524Y-91730000D01*
X116911077Y-88234447D02*
X131048098Y-88234447D01*
X135890000Y-60960000D02*
X154940000Y-60960000D01*
%TO.N,/GPIO22*%
X131275000Y-88900000D02*
X133815000Y-86360000D01*
X124565524Y-91730000D02*
X127395524Y-88900000D01*
X133815000Y-65575000D02*
X135890000Y-63500000D01*
X118065524Y-91730000D02*
X124565524Y-91730000D01*
X127395524Y-88900000D02*
X131275000Y-88900000D01*
X133815000Y-86360000D02*
X133815000Y-65575000D01*
X135890000Y-63500000D02*
X154940000Y-63500000D01*
%TO.N,/GPIO21*%
X135815524Y-91730000D02*
X134265000Y-90179476D01*
X129315524Y-91730000D02*
X135815524Y-91730000D01*
X134265000Y-70205000D02*
X135890000Y-68580000D01*
X134265000Y-90179476D02*
X134265000Y-70205000D01*
X154940000Y-68580000D02*
X135890000Y-68580000D01*
%TO.N,/GPIO20*%
X140315524Y-91730000D02*
X134715000Y-86129476D01*
X135890000Y-71120000D02*
X154940000Y-71120000D01*
X134715000Y-86129476D02*
X134715000Y-72295000D01*
X134715000Y-72295000D02*
X135890000Y-71120000D01*
X140315524Y-91730000D02*
X146815524Y-91730000D01*
%TO.N,/GPIO19*%
X154940000Y-73660000D02*
X135890000Y-73660000D01*
%TO.N,/GPIO18*%
X135890000Y-76200000D02*
X154940000Y-76200000D01*
%TO.N,/GPIO17*%
X154940000Y-81280000D02*
X135890000Y-81280000D01*
%TO.N,/GPIO16*%
X135890000Y-83820000D02*
X154940000Y-83820000D01*
%TO.N,unconnected-(J3-Pin_1-Pad1)*%
X86360000Y-35560000D02*
X96520000Y-35560000D01*
%TO.N,unconnected-(J3-Pin_2-Pad2)*%
X96520000Y-38100000D02*
X86360000Y-38100000D01*
%TO.N,unconnected-(J3-Pin_4-Pad4)*%
X86360000Y-43180000D02*
X96520000Y-43180000D01*
%TO.N,unconnected-(J3-Pin_5-Pad5)*%
X96520000Y-45720000D02*
X86360000Y-45720000D01*
%TO.N,unconnected-(J3-Pin_6-Pad6)*%
X86360000Y-48260000D02*
X96520000Y-48260000D01*
%TO.N,unconnected-(J3-Pin_7-Pad7)*%
X96520000Y-50800000D02*
X86360000Y-50800000D01*
%TO.N,unconnected-(J3-Pin_9-Pad9)*%
X86360000Y-55880000D02*
X96520000Y-55880000D01*
%TO.N,unconnected-(J3-Pin_10-Pad10)*%
X86360000Y-58420000D02*
X96520000Y-58420000D01*
%TO.N,unconnected-(J3-Pin_11-Pad11)*%
X86360000Y-60960000D02*
X96520000Y-60960000D01*
%TO.N,unconnected-(J3-Pin_12-Pad12)*%
X96520000Y-63500000D02*
X86360000Y-63500000D01*
%TO.N,unconnected-(J3-Pin_14-Pad14)*%
X86360000Y-68580000D02*
X96520000Y-68580000D01*
%TO.N,unconnected-(J3-Pin_15-Pad15)*%
X96520000Y-71120000D02*
X86360000Y-71120000D01*
%TO.N,unconnected-(J3-Pin_16-Pad16)*%
X86360000Y-73660000D02*
X96520000Y-73660000D01*
%TO.N,unconnected-(J3-Pin_17-Pad17)*%
X96520000Y-76200000D02*
X86360000Y-76200000D01*
%TO.N,unconnected-(J3-Pin_19-Pad19)*%
X86360000Y-81280000D02*
X96520000Y-81280000D01*
%TO.N,unconnected-(J3-Pin_20-Pad20)*%
X96520000Y-83820000D02*
X86360000Y-83820000D01*
%TO.N,unconnected-(J4-Pin_1-Pad1)*%
X157480000Y-35560000D02*
X167640000Y-35560000D01*
%TO.N,unconnected-(J4-Pin_2-Pad2)*%
X167640000Y-38100000D02*
X157480000Y-38100000D01*
%TO.N,unconnected-(J4-Pin_4-Pad4)*%
X157480000Y-43180000D02*
X167640000Y-43180000D01*
%TO.N,unconnected-(J4-Pin_5-Pad5)*%
X167640000Y-45720000D02*
X157480000Y-45720000D01*
%TO.N,unconnected-(J4-Pin_6-Pad6)*%
X157480000Y-48260000D02*
X167640000Y-48260000D01*
%TO.N,unconnected-(J4-Pin_7-Pad7)*%
X167640000Y-50800000D02*
X157480000Y-50800000D01*
%TO.N,unconnected-(J4-Pin_8-Pad8)*%
X157480000Y-53340000D02*
X167640000Y-53340000D01*
%TO.N,unconnected-(J4-Pin_9-Pad9)*%
X167640000Y-55880000D02*
X157480000Y-55880000D01*
%TO.N,unconnected-(J4-Pin_10-Pad10)*%
X157480000Y-58420000D02*
X167640000Y-58420000D01*
%TO.N,unconnected-(J4-Pin_11-Pad11)*%
X167640000Y-60960000D02*
X157480000Y-60960000D01*
%TO.N,unconnected-(J4-Pin_12-Pad12)*%
X157480000Y-63500000D02*
X167640000Y-63500000D01*
%TO.N,unconnected-(J4-Pin_14-Pad14)*%
X167640000Y-68580000D02*
X157480000Y-68580000D01*
%TO.N,unconnected-(J4-Pin_15-Pad15)*%
X157480000Y-71120000D02*
X167640000Y-71120000D01*
%TO.N,unconnected-(J4-Pin_16-Pad16)*%
X167640000Y-73660000D02*
X157480000Y-73660000D01*
%TO.N,unconnected-(J4-Pin_17-Pad17)*%
X157480000Y-76200000D02*
X167640000Y-76200000D01*
%TO.N,unconnected-(J4-Pin_19-Pad19)*%
X167640000Y-81280000D02*
X157480000Y-81280000D01*
%TO.N,unconnected-(J4-Pin_20-Pad20)*%
X157480000Y-83820000D02*
X167640000Y-83820000D01*
%TO.N,Net-(D1-A)*%
X188440000Y-58420000D02*
X191770000Y-58420000D01*
%TO.N,Net-(D2-A)*%
X188440000Y-55880000D02*
X191770000Y-55880000D01*
%TO.N,Net-(D3-A)*%
X188440000Y-50800000D02*
X191770000Y-50800000D01*
%TO.N,SO-8-1-1*%
X63641534Y-95509929D02*
X60330929Y-95509929D01*
X60330929Y-95509929D02*
X58801000Y-93980000D01*
%TO.N,SO-8-1-2*%
X63641534Y-96779929D02*
X59060929Y-96779929D01*
X59060929Y-96779929D02*
X58801000Y-96520000D01*
%TO.N,SO-8-1-3*%
X59811071Y-98049929D02*
X58801000Y-99060000D01*
X63641534Y-98049929D02*
X59811071Y-98049929D01*
%TO.N,SO-8-1-4*%
X63641534Y-99319929D02*
X61081071Y-99319929D01*
X61081071Y-99319929D02*
X58801000Y-101600000D01*
%TO.N,SO-8-1-5*%
X68321534Y-99319929D02*
X70998929Y-99319929D01*
X70998929Y-99319929D02*
X73279000Y-101600000D01*
%TO.N,SO-8-1-6*%
X68321534Y-98049929D02*
X72268929Y-98049929D01*
X72268929Y-98049929D02*
X73279000Y-99060000D01*
%TO.N,SO-8-1-7*%
X73019071Y-96779929D02*
X73279000Y-96520000D01*
X68321534Y-96779929D02*
X73019071Y-96779929D01*
%TO.N,SO-8-1-8*%
X68321534Y-95509929D02*
X71749071Y-95509929D01*
X71749071Y-95509929D02*
X73279000Y-93980000D01*
%TO.N,SO-8-2-1*%
X89422534Y-95509929D02*
X86111929Y-95509929D01*
X86111929Y-95509929D02*
X84582000Y-93980000D01*
%TO.N,SO-8-2-2*%
X89422534Y-96779929D02*
X84841929Y-96779929D01*
X84841929Y-96779929D02*
X84582000Y-96520000D01*
%TO.N,SO-8-2-3*%
X85592071Y-98049929D02*
X84582000Y-99060000D01*
X89422534Y-98049929D02*
X85592071Y-98049929D01*
%TO.N,SO-8-2-4*%
X89422534Y-99319929D02*
X86862071Y-99319929D01*
X86862071Y-99319929D02*
X84582000Y-101600000D01*
%TO.N,SO-8-2-5*%
X96779929Y-99319929D02*
X99060000Y-101600000D01*
X94102534Y-99319929D02*
X96779929Y-99319929D01*
%TO.N,SO-8-2-6*%
X98049929Y-98049929D02*
X99060000Y-99060000D01*
X94102534Y-98049929D02*
X98049929Y-98049929D01*
%TO.N,SO-8-2-7*%
X94102534Y-96779929D02*
X98800071Y-96779929D01*
X98800071Y-96779929D02*
X99060000Y-96520000D01*
%TO.N,SO-8-2-8*%
X94102534Y-95509929D02*
X97530071Y-95509929D01*
X97530071Y-95509929D02*
X99060000Y-93980000D01*
%TO.N,SOT-32-1-1*%
X161820000Y-97837452D02*
X160597452Y-97837452D01*
X160597452Y-97837452D02*
X156740000Y-93980000D01*
%TO.N,SOT-32-1-2*%
X161820000Y-98487452D02*
X158707452Y-98487452D01*
X158707452Y-98487452D02*
X156740000Y-96520000D01*
%TO.N,SOT-32-1-3*%
X156827452Y-99147452D02*
X156740000Y-99060000D01*
X161820000Y-99147452D02*
X156827452Y-99147452D01*
%TO.N,SOT-32-1-4*%
X161820000Y-99797452D02*
X158542548Y-99797452D01*
X158542548Y-99797452D02*
X156740000Y-101600000D01*
%TO.N,SOT-32-1-5*%
X161820000Y-100442452D02*
X160437548Y-100442452D01*
X160437548Y-100442452D02*
X156740000Y-104140000D01*
%TO.N,SOT-32-1-6*%
X166482452Y-100442452D02*
X170180000Y-104140000D01*
X164520000Y-100442452D02*
X166482452Y-100442452D01*
%TO.N,SOT-32-1-7*%
X164520000Y-99797452D02*
X168377452Y-99797452D01*
X168377452Y-99797452D02*
X170180000Y-101600000D01*
%TO.N,SOT-32-1-8*%
X164520000Y-99147452D02*
X170092548Y-99147452D01*
X170092548Y-99147452D02*
X170180000Y-99060000D01*
%TO.N,SOT-32-1-9*%
X168212548Y-98487452D02*
X170180000Y-96520000D01*
X164520000Y-98487452D02*
X168212548Y-98487452D01*
%TO.N,SOT-32-1-10*%
X166322548Y-97837452D02*
X164520000Y-97837452D01*
X170180000Y-93980000D02*
X166322548Y-97837452D01*
%TO.N,SOT-32-2-1*%
X183457452Y-97837452D02*
X179600000Y-93980000D01*
X184680000Y-97837452D02*
X183457452Y-97837452D01*
%TO.N,SOT-32-2-2*%
X181567452Y-98487452D02*
X179600000Y-96520000D01*
X184680000Y-98487452D02*
X181567452Y-98487452D01*
%TO.N,SOT-32-2-3*%
X184680000Y-99147452D02*
X179687452Y-99147452D01*
X179687452Y-99147452D02*
X179600000Y-99060000D01*
%TO.N,SOT-32-2-4*%
X184680000Y-99797452D02*
X181402548Y-99797452D01*
X181402548Y-99797452D02*
X179600000Y-101600000D01*
%TO.N,SOT-32-2-5*%
X184680000Y-100442452D02*
X183297548Y-100442452D01*
X183297548Y-100442452D02*
X179600000Y-104140000D01*
%TO.N,SOT-32-2-6*%
X187380000Y-100442452D02*
X189342452Y-100442452D01*
X189342452Y-100442452D02*
X193040000Y-104140000D01*
%TO.N,SOT-32-2-7*%
X191237452Y-99797452D02*
X193040000Y-101600000D01*
X187380000Y-99797452D02*
X191237452Y-99797452D01*
%TO.N,SOT-32-2-8*%
X192952548Y-99147452D02*
X193040000Y-99060000D01*
X187380000Y-99147452D02*
X192952548Y-99147452D01*
%TO.N,SOT-32-2-9*%
X191072548Y-98487452D02*
X193040000Y-96520000D01*
X187380000Y-98487452D02*
X191072548Y-98487452D01*
%TO.N,SOT-32-2-10*%
X189182548Y-97837452D02*
X187380000Y-97837452D01*
X193040000Y-93980000D02*
X189182548Y-97837452D01*
%TD*%
M02*
