%TF.GenerationSoftware,KiCad,Pcbnew,7.0.5-7.0.5~ubuntu22.04.1*%
%TF.CreationDate,2023-07-14T20:09:26+02:00*%
%TF.ProjectId,pico_breakout,7069636f-5f62-4726-9561-6b6f75742e6b,rev?*%
%TF.SameCoordinates,Original*%
%TF.FileFunction,Legend,Bot*%
%TF.FilePolarity,Positive*%
%FSLAX46Y46*%
G04 Gerber Fmt 4.6, Leading zero omitted, Abs format (unit mm)*
G04 Created by KiCad (PCBNEW 7.0.5-7.0.5~ubuntu22.04.1) date 2023-07-14 20:09:26*
%MOMM*%
%LPD*%
G01*
G04 APERTURE LIST*
%ADD10C,0.150000*%
G04 APERTURE END LIST*
D10*
X202069506Y-107581819D02*
X202069506Y-108296104D01*
X202069506Y-108296104D02*
X202117125Y-108438961D01*
X202117125Y-108438961D02*
X202212363Y-108534200D01*
X202212363Y-108534200D02*
X202355220Y-108581819D01*
X202355220Y-108581819D02*
X202450458Y-108581819D01*
X201117125Y-108581819D02*
X201593315Y-108581819D01*
X201593315Y-108581819D02*
X201593315Y-107581819D01*
X200212363Y-108486580D02*
X200259982Y-108534200D01*
X200259982Y-108534200D02*
X200402839Y-108581819D01*
X200402839Y-108581819D02*
X200498077Y-108581819D01*
X200498077Y-108581819D02*
X200640934Y-108534200D01*
X200640934Y-108534200D02*
X200736172Y-108438961D01*
X200736172Y-108438961D02*
X200783791Y-108343723D01*
X200783791Y-108343723D02*
X200831410Y-108153247D01*
X200831410Y-108153247D02*
X200831410Y-108010390D01*
X200831410Y-108010390D02*
X200783791Y-107819914D01*
X200783791Y-107819914D02*
X200736172Y-107724676D01*
X200736172Y-107724676D02*
X200640934Y-107629438D01*
X200640934Y-107629438D02*
X200498077Y-107581819D01*
X200498077Y-107581819D02*
X200402839Y-107581819D01*
X200402839Y-107581819D02*
X200259982Y-107629438D01*
X200259982Y-107629438D02*
X200212363Y-107677057D01*
X199498077Y-107581819D02*
X199498077Y-108296104D01*
X199498077Y-108296104D02*
X199545696Y-108438961D01*
X199545696Y-108438961D02*
X199640934Y-108534200D01*
X199640934Y-108534200D02*
X199783791Y-108581819D01*
X199783791Y-108581819D02*
X199879029Y-108581819D01*
X198545696Y-108581819D02*
X199021886Y-108581819D01*
X199021886Y-108581819D02*
X199021886Y-107581819D01*
X197640934Y-108486580D02*
X197688553Y-108534200D01*
X197688553Y-108534200D02*
X197831410Y-108581819D01*
X197831410Y-108581819D02*
X197926648Y-108581819D01*
X197926648Y-108581819D02*
X198069505Y-108534200D01*
X198069505Y-108534200D02*
X198164743Y-108438961D01*
X198164743Y-108438961D02*
X198212362Y-108343723D01*
X198212362Y-108343723D02*
X198259981Y-108153247D01*
X198259981Y-108153247D02*
X198259981Y-108010390D01*
X198259981Y-108010390D02*
X198212362Y-107819914D01*
X198212362Y-107819914D02*
X198164743Y-107724676D01*
X198164743Y-107724676D02*
X198069505Y-107629438D01*
X198069505Y-107629438D02*
X197926648Y-107581819D01*
X197926648Y-107581819D02*
X197831410Y-107581819D01*
X197831410Y-107581819D02*
X197688553Y-107629438D01*
X197688553Y-107629438D02*
X197640934Y-107677057D01*
X196926648Y-107581819D02*
X196926648Y-108296104D01*
X196926648Y-108296104D02*
X196974267Y-108438961D01*
X196974267Y-108438961D02*
X197069505Y-108534200D01*
X197069505Y-108534200D02*
X197212362Y-108581819D01*
X197212362Y-108581819D02*
X197307600Y-108581819D01*
X195974267Y-108581819D02*
X196450457Y-108581819D01*
X196450457Y-108581819D02*
X196450457Y-107581819D01*
X195069505Y-108486580D02*
X195117124Y-108534200D01*
X195117124Y-108534200D02*
X195259981Y-108581819D01*
X195259981Y-108581819D02*
X195355219Y-108581819D01*
X195355219Y-108581819D02*
X195498076Y-108534200D01*
X195498076Y-108534200D02*
X195593314Y-108438961D01*
X195593314Y-108438961D02*
X195640933Y-108343723D01*
X195640933Y-108343723D02*
X195688552Y-108153247D01*
X195688552Y-108153247D02*
X195688552Y-108010390D01*
X195688552Y-108010390D02*
X195640933Y-107819914D01*
X195640933Y-107819914D02*
X195593314Y-107724676D01*
X195593314Y-107724676D02*
X195498076Y-107629438D01*
X195498076Y-107629438D02*
X195355219Y-107581819D01*
X195355219Y-107581819D02*
X195259981Y-107581819D01*
X195259981Y-107581819D02*
X195117124Y-107629438D01*
X195117124Y-107629438D02*
X195069505Y-107677057D01*
X194355219Y-107581819D02*
X194355219Y-108296104D01*
X194355219Y-108296104D02*
X194402838Y-108438961D01*
X194402838Y-108438961D02*
X194498076Y-108534200D01*
X194498076Y-108534200D02*
X194640933Y-108581819D01*
X194640933Y-108581819D02*
X194736171Y-108581819D01*
X193402838Y-108581819D02*
X193879028Y-108581819D01*
X193879028Y-108581819D02*
X193879028Y-107581819D01*
X192498076Y-108486580D02*
X192545695Y-108534200D01*
X192545695Y-108534200D02*
X192688552Y-108581819D01*
X192688552Y-108581819D02*
X192783790Y-108581819D01*
X192783790Y-108581819D02*
X192926647Y-108534200D01*
X192926647Y-108534200D02*
X193021885Y-108438961D01*
X193021885Y-108438961D02*
X193069504Y-108343723D01*
X193069504Y-108343723D02*
X193117123Y-108153247D01*
X193117123Y-108153247D02*
X193117123Y-108010390D01*
X193117123Y-108010390D02*
X193069504Y-107819914D01*
X193069504Y-107819914D02*
X193021885Y-107724676D01*
X193021885Y-107724676D02*
X192926647Y-107629438D01*
X192926647Y-107629438D02*
X192783790Y-107581819D01*
X192783790Y-107581819D02*
X192688552Y-107581819D01*
X192688552Y-107581819D02*
X192545695Y-107629438D01*
X192545695Y-107629438D02*
X192498076Y-107677057D01*
M02*
