M48
; DRILL file {KiCad 7.0.5-7.0.5~ubuntu22.04.1} date vr 14 jul 2023 19:56:14 CEST
; FORMAT={-:-/ absolute / inch / decimal}
; #@! TF.CreationDate,2023-07-14T19:56:14+02:00
; #@! TF.GenerationSoftware,Kicad,Pcbnew,7.0.5-7.0.5~ubuntu22.04.1
; #@! TF.FileFunction,MixedPlating,1,2
FMAT,2
INCH
; #@! TA.AperFunction,Plated,PTH,ViaDrill
T1C0.0157
; #@! TA.AperFunction,Plated,PTH,ComponentDrill
T2C0.0394
; #@! TA.AperFunction,Plated,PTH,ComponentDrill
T3C0.0402
; #@! TA.AperFunction,Plated,PTH,ComponentDrill
T4C0.0433
; #@! TA.AperFunction,NonPlated,NPTH,ComponentDrill
T5C0.0591
; #@! TA.AperFunction,NonPlated,NPTH,ComponentDrill
T6C0.0709
%
G90
G05
T1
X5.2Y-1.8
X5.2Y-3.7
X7.6181Y-2.0951
T2
X2.315Y-3.7
X2.315Y-3.8
X2.315Y-3.9
X2.315Y-4.0
X2.885Y-3.7
X2.885Y-3.8
X2.885Y-3.9
X2.885Y-4.0
X3.33Y-3.7
X3.33Y-3.8
X3.33Y-3.9
X3.33Y-4.0
X3.4Y-1.4
X3.4Y-1.5
X3.4Y-1.6
X3.4Y-1.7
X3.4Y-1.8
X3.4Y-1.9
X3.4Y-2.0
X3.4Y-2.1
X3.4Y-2.2
X3.4Y-2.3
X3.4Y-2.4
X3.4Y-2.5
X3.4Y-2.6
X3.4Y-2.7
X3.4Y-2.8
X3.4Y-2.9
X3.4Y-3.0
X3.4Y-3.1
X3.4Y-3.2
X3.4Y-3.3
X3.5Y-1.4
X3.5Y-1.5
X3.5Y-1.6
X3.5Y-1.7
X3.5Y-1.8
X3.5Y-1.9
X3.5Y-2.0
X3.5Y-2.1
X3.5Y-2.2
X3.5Y-2.3
X3.5Y-2.4
X3.5Y-2.5
X3.5Y-2.6
X3.5Y-2.7
X3.5Y-2.8
X3.5Y-2.9
X3.5Y-3.0
X3.5Y-3.1
X3.5Y-3.2
X3.5Y-3.3
X3.6Y-1.4
X3.6Y-1.5
X3.6Y-1.6
X3.6Y-1.7
X3.6Y-1.8
X3.6Y-1.9
X3.6Y-2.0
X3.6Y-2.1
X3.6Y-2.2
X3.6Y-2.3
X3.6Y-2.4
X3.6Y-2.5
X3.6Y-2.6
X3.6Y-2.7
X3.6Y-2.8
X3.6Y-2.9
X3.6Y-3.0
X3.6Y-3.1
X3.6Y-3.2
X3.6Y-3.3
X3.7Y-1.4
X3.7Y-1.5
X3.7Y-1.6
X3.7Y-1.7
X3.7Y-1.8
X3.7Y-1.9
X3.7Y-2.0
X3.7Y-2.1
X3.7Y-2.2
X3.7Y-2.3
X3.7Y-2.4
X3.7Y-2.5
X3.7Y-2.6
X3.7Y-2.7
X3.7Y-2.8
X3.7Y-2.9
X3.7Y-3.0
X3.7Y-3.1
X3.7Y-3.2
X3.7Y-3.3
X3.8Y-1.4
X3.8Y-1.5
X3.8Y-1.6
X3.8Y-1.7
X3.8Y-1.8
X3.8Y-1.9
X3.8Y-2.0
X3.8Y-2.1
X3.8Y-2.2
X3.8Y-2.3
X3.8Y-2.4
X3.8Y-2.5
X3.8Y-2.6
X3.8Y-2.7
X3.8Y-2.8
X3.8Y-2.9
X3.8Y-3.0
X3.8Y-3.1
X3.8Y-3.2
X3.8Y-3.3
X3.9Y-1.4
X3.9Y-1.5
X3.9Y-1.6
X3.9Y-1.7
X3.9Y-1.8
X3.9Y-1.9
X3.9Y-2.0
X3.9Y-2.1
X3.9Y-2.2
X3.9Y-2.3
X3.9Y-2.4
X3.9Y-2.5
X3.9Y-2.6
X3.9Y-2.7
X3.9Y-2.8
X3.9Y-2.9
X3.9Y-3.0
X3.9Y-3.1
X3.9Y-3.2
X3.9Y-3.3
X3.9Y-3.7
X3.9Y-3.8
X3.9Y-3.9
X3.9Y-4.0
X4.0Y-1.4
X4.0Y-1.5
X4.0Y-1.6
X4.0Y-1.7
X4.0Y-1.8
X4.0Y-1.9
X4.0Y-2.0
X4.0Y-2.1
X4.0Y-2.2
X4.0Y-2.3
X4.0Y-2.4
X4.0Y-2.5
X4.0Y-2.6
X4.0Y-2.7
X4.0Y-2.8
X4.0Y-2.9
X4.0Y-3.0
X4.0Y-3.1
X4.0Y-3.2
X4.0Y-3.3
X4.1Y-1.4
X4.1Y-1.5
X4.1Y-1.6
X4.1Y-1.7
X4.1Y-1.8
X4.1Y-1.9
X4.1Y-2.0
X4.1Y-2.1
X4.1Y-2.2
X4.1Y-2.3
X4.1Y-2.4
X4.1Y-2.5
X4.1Y-2.6
X4.1Y-2.7
X4.1Y-2.8
X4.1Y-2.9
X4.1Y-3.0
X4.1Y-3.1
X4.1Y-3.2
X4.1Y-3.3
X4.2Y-1.4
X4.2Y-1.5
X4.2Y-1.6
X4.2Y-1.7
X4.2Y-1.8
X4.2Y-1.9
X4.2Y-2.0
X4.2Y-2.1
X4.2Y-2.2
X4.2Y-2.3
X4.2Y-2.4
X4.2Y-2.5
X4.2Y-2.6
X4.2Y-2.7
X4.2Y-2.8
X4.2Y-2.9
X4.2Y-3.0
X4.2Y-3.1
X4.2Y-3.2
X4.2Y-3.3
X4.3Y-1.4
X4.3Y-1.5
X4.3Y-1.6
X4.3Y-1.7
X4.3Y-1.8
X4.3Y-1.9
X4.3Y-2.0
X4.3Y-2.1
X4.3Y-2.2
X4.3Y-2.3
X4.3Y-2.4
X4.3Y-2.5
X4.3Y-2.6
X4.3Y-2.7
X4.3Y-2.8
X4.3Y-2.9
X4.3Y-3.0
X4.3Y-3.1
X4.3Y-3.2
X4.3Y-3.3
X4.6Y-4.1
X4.7Y-4.1
X4.8Y-4.1
X4.9Y-4.1
X5.0Y-4.1
X5.1Y-4.1
X5.2Y-4.1
X5.3Y-4.1
X5.4Y-4.1
X5.5Y-4.1
X5.7Y-1.4
X5.7Y-1.5
X5.7Y-1.6
X5.7Y-1.7
X5.7Y-1.8
X5.7Y-1.9
X5.7Y-2.0
X5.7Y-2.1
X5.7Y-2.2
X5.7Y-2.3
X5.7Y-2.4
X5.7Y-2.5
X5.7Y-2.6
X5.7Y-2.7
X5.7Y-2.8
X5.7Y-2.9
X5.7Y-3.0
X5.7Y-3.1
X5.7Y-3.2
X5.7Y-3.3
X5.8Y-1.4
X5.8Y-1.5
X5.8Y-1.6
X5.8Y-1.7
X5.8Y-1.8
X5.8Y-1.9
X5.8Y-2.0
X5.8Y-2.1
X5.8Y-2.2
X5.8Y-2.3
X5.8Y-2.4
X5.8Y-2.5
X5.8Y-2.6
X5.8Y-2.7
X5.8Y-2.8
X5.8Y-2.9
X5.8Y-3.0
X5.8Y-3.1
X5.8Y-3.2
X5.8Y-3.3
X5.9Y-1.4
X5.9Y-1.5
X5.9Y-1.6
X5.9Y-1.7
X5.9Y-1.8
X5.9Y-1.9
X5.9Y-2.0
X5.9Y-2.1
X5.9Y-2.2
X5.9Y-2.3
X5.9Y-2.4
X5.9Y-2.5
X5.9Y-2.6
X5.9Y-2.7
X5.9Y-2.8
X5.9Y-2.9
X5.9Y-3.0
X5.9Y-3.1
X5.9Y-3.2
X5.9Y-3.3
X6.0Y-1.4
X6.0Y-1.5
X6.0Y-1.6
X6.0Y-1.7
X6.0Y-1.8
X6.0Y-1.9
X6.0Y-2.0
X6.0Y-2.1
X6.0Y-2.2
X6.0Y-2.3
X6.0Y-2.4
X6.0Y-2.5
X6.0Y-2.6
X6.0Y-2.7
X6.0Y-2.8
X6.0Y-2.9
X6.0Y-3.0
X6.0Y-3.1
X6.0Y-3.2
X6.0Y-3.3
X6.1Y-1.4
X6.1Y-1.5
X6.1Y-1.6
X6.1Y-1.7
X6.1Y-1.8
X6.1Y-1.9
X6.1Y-2.0
X6.1Y-2.1
X6.1Y-2.2
X6.1Y-2.3
X6.1Y-2.4
X6.1Y-2.5
X6.1Y-2.6
X6.1Y-2.7
X6.1Y-2.8
X6.1Y-2.9
X6.1Y-3.0
X6.1Y-3.1
X6.1Y-3.2
X6.1Y-3.3
X6.1709Y-3.7
X6.1709Y-3.8
X6.1709Y-3.9
X6.1709Y-4.0
X6.1709Y-4.1
X6.2Y-1.4
X6.2Y-1.5
X6.2Y-1.6
X6.2Y-1.7
X6.2Y-1.8
X6.2Y-1.9
X6.2Y-2.0
X6.2Y-2.1
X6.2Y-2.2
X6.2Y-2.3
X6.2Y-2.4
X6.2Y-2.5
X6.2Y-2.6
X6.2Y-2.7
X6.2Y-2.8
X6.2Y-2.9
X6.2Y-3.0
X6.2Y-3.1
X6.2Y-3.2
X6.2Y-3.3
X6.3Y-1.4
X6.3Y-1.5
X6.3Y-1.6
X6.3Y-1.7
X6.3Y-1.8
X6.3Y-1.9
X6.3Y-2.0
X6.3Y-2.1
X6.3Y-2.2
X6.3Y-2.3
X6.3Y-2.4
X6.3Y-2.5
X6.3Y-2.6
X6.3Y-2.7
X6.3Y-2.8
X6.3Y-2.9
X6.3Y-3.0
X6.3Y-3.1
X6.3Y-3.2
X6.3Y-3.3
X6.4Y-1.4
X6.4Y-1.5
X6.4Y-1.6
X6.4Y-1.7
X6.4Y-1.8
X6.4Y-1.9
X6.4Y-2.0
X6.4Y-2.1
X6.4Y-2.2
X6.4Y-2.3
X6.4Y-2.4
X6.4Y-2.5
X6.4Y-2.6
X6.4Y-2.7
X6.4Y-2.8
X6.4Y-2.9
X6.4Y-3.0
X6.4Y-3.1
X6.4Y-3.2
X6.4Y-3.3
X6.5Y-1.4
X6.5Y-1.5
X6.5Y-1.6
X6.5Y-1.7
X6.5Y-1.8
X6.5Y-1.9
X6.5Y-2.0
X6.5Y-2.1
X6.5Y-2.2
X6.5Y-2.3
X6.5Y-2.4
X6.5Y-2.5
X6.5Y-2.6
X6.5Y-2.7
X6.5Y-2.8
X6.5Y-2.9
X6.5Y-3.0
X6.5Y-3.1
X6.5Y-3.2
X6.5Y-3.3
X6.6Y-1.4
X6.6Y-1.5
X6.6Y-1.6
X6.6Y-1.7
X6.6Y-1.8
X6.6Y-1.9
X6.6Y-2.0
X6.6Y-2.1
X6.6Y-2.2
X6.6Y-2.3
X6.6Y-2.4
X6.6Y-2.5
X6.6Y-2.6
X6.6Y-2.7
X6.6Y-2.8
X6.6Y-2.9
X6.6Y-3.0
X6.6Y-3.1
X6.6Y-3.2
X6.6Y-3.3
X6.7Y-3.7
X6.7Y-3.8
X6.7Y-3.9
X6.7Y-4.0
X6.7Y-4.1
X7.0709Y-3.7
X7.0709Y-3.8
X7.0709Y-3.9
X7.0709Y-4.0
X7.0709Y-4.1
X7.6Y-3.7
X7.6Y-3.8
X7.6Y-3.9
X7.6Y-4.0
X7.6Y-4.1
T3
X4.65Y-1.4
X4.65Y-1.5
X4.65Y-1.6
X4.65Y-1.7
X4.65Y-1.8
X4.65Y-1.9
X4.65Y-2.0
X4.65Y-2.1
X4.65Y-2.2
X4.65Y-2.3
X4.65Y-2.4
X4.65Y-2.5
X4.65Y-2.6
X4.65Y-2.7
X4.65Y-2.8
X4.65Y-2.9
X4.65Y-3.0
X4.65Y-3.1
X4.65Y-3.2
X4.65Y-3.3
X4.9Y-3.2909
X5.0Y-3.2909
X5.1Y-3.2909
X5.35Y-1.4
X5.35Y-1.5
X5.35Y-1.6
X5.35Y-1.7
X5.35Y-1.8
X5.35Y-1.9
X5.35Y-2.0
X5.35Y-2.1
X5.35Y-2.2
X5.35Y-2.3
X5.35Y-2.4
X5.35Y-2.5
X5.35Y-2.6
X5.35Y-2.7
X5.35Y-2.8
X5.35Y-2.9
X5.35Y-3.0
X5.35Y-3.1
X5.35Y-3.2
X5.35Y-3.3
T4
X4.2093Y-3.6114
X4.2093Y-3.7886
X4.4652Y-3.6114
X4.4652Y-3.7886
X4.6482Y-3.6114
X4.6482Y-3.7886
X4.9042Y-3.6114
X4.9042Y-3.7886
X5.0912Y-3.6114
X5.0912Y-3.7886
X5.3471Y-3.6114
X5.3471Y-3.7886
X5.5242Y-3.6114
X5.5242Y-3.7886
X5.7801Y-3.6114
X5.7801Y-3.7886
T5
X4.9045Y-1.5244
X5.0955Y-1.5244
T6
X4.8927Y-1.4051
X5.1073Y-1.4051
T0
M30
